<svg width="12" height="12" viewBox="0 0 12 12" fill="none" xmlns="http://www.w3.org/2000/svg">
<g clip-path="url(#clip0_1_4960)">
<path fill-rule="evenodd" clip-rule="evenodd" d="M0.514286 1.71428C0.650131 1.71606 0.779912 1.77081 0.875977 1.86687C0.972042 1.96294 1.0268 2.09272 1.02857 2.22856V9.77142C1.0268 9.90727 0.972042 10.037 0.875977 10.1331C0.779912 10.2292 0.650131 10.2839 0.514286 10.2857C0.378441 10.2839 0.24866 10.2292 0.152595 10.1331C0.0565297 10.037 0.00177598 9.90727 0 9.77142L0 2.22856C0.00177598 2.09272 0.0565297 1.96294 0.152595 1.86687C0.24866 1.77081 0.378441 1.71606 0.514286 1.71428Z" fill="black"/>
<path fill-rule="evenodd" clip-rule="evenodd" d="M3.25721 1.71428C3.39305 1.71606 3.52283 1.77081 3.6189 1.86687C3.71496 1.96294 3.76972 2.09272 3.77149 2.22856V9.77142C3.76972 9.90727 3.71496 10.037 3.6189 10.1331C3.52283 10.2292 3.39305 10.2839 3.25721 10.2857C3.12136 10.2839 2.99158 10.2292 2.89551 10.1331C2.79945 10.037 2.7447 9.90727 2.74292 9.77142V2.22856C2.7447 2.09272 2.79945 1.96294 2.89551 1.86687C2.99158 1.77081 3.12136 1.71606 3.25721 1.71428Z" fill="black"/>
<path fill-rule="evenodd" clip-rule="evenodd" d="M5.99988 1.71428C6.13573 1.71606 6.26551 1.77081 6.36157 1.86687C6.45764 1.96294 6.51239 2.09272 6.51417 2.22856V9.77142C6.51239 9.90727 6.45764 10.037 6.36157 10.1331C6.26551 10.2292 6.13573 10.2839 5.99988 10.2857C5.86404 10.2839 5.73426 10.2292 5.63819 10.1331C5.54213 10.037 5.48737 9.90727 5.4856 9.77142V2.22856C5.48737 2.09272 5.54213 1.96294 5.63819 1.86687C5.73426 1.77081 5.86404 1.71606 5.99988 1.71428Z" fill="black"/>
<path fill-rule="evenodd" clip-rule="evenodd" d="M8.7428 1.71428C8.87865 1.71606 9.00843 1.77081 9.10449 1.86687C9.20056 1.96294 9.25531 2.09272 9.25709 2.22856V9.77142C9.25531 9.90727 9.20056 10.037 9.10449 10.1331C9.00843 10.2292 8.87865 10.2839 8.7428 10.2857C8.60696 10.2839 8.47718 10.2292 8.38111 10.1331C8.28505 10.037 8.23029 9.90727 8.22852 9.77142V2.22856C8.23029 2.09272 8.28505 1.96294 8.38111 1.86687C8.47718 1.77081 8.60696 1.71606 8.7428 1.71428Z" fill="black"/>
<path fill-rule="evenodd" clip-rule="evenodd" d="M11.4857 1.71428C11.6216 1.71606 11.7513 1.77081 11.8474 1.86687C11.9435 1.96294 11.9982 2.09272 12 2.22856V9.77142C11.9982 9.90727 11.9435 10.037 11.8474 10.1331C11.7513 10.2292 11.6216 10.2839 11.4857 10.2857C11.3499 10.2839 11.2201 10.2292 11.124 10.1331C11.028 10.037 10.9732 9.90727 10.9714 9.77142V2.22856C10.9732 2.09272 11.028 1.96294 11.124 1.86687C11.2201 1.77081 11.3499 1.71606 11.4857 1.71428Z" fill="black"/>
</g>
<defs>
<clipPath id="clip0_1_4960">
<rect width="12" height="12" fill="white"/>
</clipPath>
</defs>
</svg>
